<?xml version="1.0" encoding="iso-8859-1"?>
<!-- Uploaded to: SVG Repo, www.svgrepo.com, Generator: SVG Repo Mixer Tools -->
<svg height="800px" width="800px" version="1.1" id="Layer_1" xmlns="http://www.w3.org/2000/svg" xmlns:xlink="http://www.w3.org/1999/xlink" 
	 viewBox="0 0 512 512" xml:space="preserve">
<circle style="fill:#61ACD2;" cx="256" cy="256" r="243.81"/>
<path style="fill:#EFEFEF;" d="M256,451.048c-107.549,0-195.048-87.498-195.048-195.048S148.451,60.952,256,60.952
	S451.048,148.451,451.048,256S363.549,451.048,256,451.048z"/>
<path d="M256,0C114.842,0,0,114.842,0,256s114.842,256,256,256s256-114.842,256-256S397.158,0,256,0z M256,487.619
	C128.284,487.619,24.381,383.716,24.381,256S128.284,24.381,256,24.381S487.619,128.284,487.619,256S383.716,487.619,256,487.619z"
	/>
<path d="M256,48.762C141.729,48.762,48.762,141.729,48.762,256S141.729,463.238,256,463.238S463.238,370.271,463.238,256
	S370.271,48.762,256,48.762z M256,438.857c-100.827,0-182.857-82.03-182.857-182.857S155.173,73.143,256,73.143
	S438.857,155.173,438.857,256S356.827,438.857,256,438.857z"/>
<path d="M123.246,318.622c-5.827,3.377-7.814,10.837-4.437,16.652c2.266,3.901,6.351,6.083,10.557,6.083
	c2.085,0,4.181-0.536,6.107-1.646c5.827-3.377,7.814-10.837,4.425-16.664C136.521,317.221,129.073,315.246,123.246,318.622z"/>
<path d="M141.47,182.927c-0.012-6.729-5.461-12.178-12.19-12.178c-6.741,0-12.19,5.461-12.19,12.19c0,6.741,5.46,12.19,12.203,12.19
	C136.02,195.117,141.47,189.656,141.47,182.927z"/>
<path d="M182.772,141.592c2.085,0,4.181-0.536,6.107-1.646c5.827-3.389,7.802-10.85,4.425-16.664
	c-3.377-5.827-10.837-7.802-16.664-4.425c-5.826,3.377-7.801,10.85-4.413,16.664C174.482,139.422,178.578,141.592,182.772,141.592z"
	/>
<path d="M255.854,121.905c6.729-0.012,12.178-5.474,12.165-12.203c0-6.729-5.46-12.19-12.203-12.178
	c-6.729,0.012-12.178,5.474-12.165,12.203C243.651,116.456,249.112,121.917,255.854,121.905z"/>
<path d="M189.013,372.126c-5.827-3.365-13.288-1.39-16.664,4.437c-3.378,5.827-1.39,13.288,4.437,16.664
	c1.926,1.109,4.023,1.646,6.107,1.646c4.206,0,8.291-2.182,10.557-6.083C196.827,382.964,194.84,375.503,189.013,372.126z"/>
<path d="M121.905,256.073c-0.012-6.729-5.461-12.178-12.19-12.178c-6.741,0-12.19,5.461-12.19,12.19
	c0,6.741,5.46,12.19,12.203,12.19C116.454,268.264,121.905,262.802,121.905,256.073z"/>
<path d="M402.26,243.627c-6.729,0-12.177,5.534-12.165,12.264c0.012,6.729,5.46,12.3,12.19,12.3c0,0,0.012,0,0.024,0
	c6.73,0,12.178-5.577,12.166-12.306C414.464,249.155,409.003,243.614,402.26,243.627z"/>
<path d="M382.574,194.889c2.071,0,4.181-0.536,6.107-1.658c5.827-3.389,7.802-10.85,4.413-16.664
	c-3.378-5.827-10.85-7.802-16.664-4.413c-5.816,3.389-7.791,10.85-4.413,16.664C374.283,192.707,378.368,194.889,382.574,194.889z"
	/>
<path d="M323.243,371.98c-5.816,3.389-7.791,10.85-4.401,16.664c2.267,3.889,6.351,6.059,10.545,6.059
	c2.085,0,4.192-0.524,6.131-1.658c5.816-3.377,7.778-10.85,4.39-16.664C336.53,370.566,329.069,368.591,323.243,371.98z"/>
<path d="M376.602,318.349c-5.816,3.389-7.791,10.85-4.401,16.664c2.267,3.889,6.351,6.059,10.545,6.059
	c2.085,0,4.192-0.524,6.131-1.658c5.816-3.377,7.778-10.849,4.39-16.664C389.889,316.935,382.429,314.96,376.602,318.349z"/>
<path d="M322.853,139.788c1.926,1.109,4.023,1.646,6.095,1.646c4.206,0,8.302-2.194,10.557-6.095
	c3.377-5.839,1.378-13.288-4.449-16.652c-5.839-3.377-13.286-1.378-16.652,4.45C315.026,128.963,317.026,136.424,322.853,139.788z"
	/>
<path d="M256.305,390.095c-0.049,0-0.098,0-0.134,0c-0.061,0-0.11,0-0.171,0c-6.73,0-12.19,5.461-12.19,12.19
	s5.46,12.19,12.19,12.19c0.049,0,0.11,0,0.158,0c0.061,0,0.122,0,0.171,0c0.012,0,0.026,0,0.026,0
	c6.729-0.012,12.177-5.486,12.165-12.215C268.507,395.52,263.034,390.083,256.305,390.095z"/>
<path d="M268.19,256v-71.924c0-6.733-5.459-12.19-12.19-12.19c-6.732,0-12.19,5.458-12.19,12.19v59.733h-76.8
	c-6.732,0-12.19,5.458-12.19,12.19c0,6.733,5.459,12.19,12.19,12.19H256C262.732,268.19,268.19,262.733,268.19,256z"/>
</svg>